<?xml version="1.0" encoding="utf-8"?>
<!-- Generator: Adobe Illustrator 24.0.1, SVG Export Plug-In . SVG Version: 6.00 Build 0)  -->
<svg version="1.1" id="Camada_1" xmlns="http://www.w3.org/2000/svg" xmlns:xlink="http://www.w3.org/1999/xlink" x="0px" y="0px"
	 viewBox="0 0 414 79" style="enable-background:new 0 0 414 79;" xml:space="preserve">
<style type="text/css">
	.st0{fill:#FFFFFF;}
	.st1{fill-rule:evenodd;clip-rule:evenodd;fill:#FFFFFF;}
</style>
<g>
	<g>
		<path class="st0" d="M176.85,43.98h6.73l5.49,8.9l5.49-8.9h6.73v22.99h-6.34V53.77l-5.86,9h-0.13l-5.83-8.93v13.14h-6.27V43.98z"
			/>
		<path class="st0" d="M218.56,43.82h6.14l9.79,23.16h-6.83l-1.68-4.11h-8.87l-1.64,4.11h-6.7L218.56,43.82z M224.15,57.94
			l-2.56-6.54l-2.6,6.54H224.15z"/>
		<path class="st0" d="M241.98,43.98h6.37v17.41h11.14v5.58h-17.51V43.98z"/>
		<path class="st0" d="M267.48,43.98h6.37v17.41h11.14v5.58h-17.51V43.98z"/>
	</g>
	<g>
		<path class="st0" d="M183.23,16.21c0.79,0,3.74,0.23,5.27,1.51c0,0-1.64,3.45-2.25,4.85c-0.9-0.54-1.72-1.09-3.01-1.08
			c-2.56,0.03-4.11,2.74-4.09,4.29c0.01,1.28,1.2,4.21,4,4.18h76.15V17.29h4.76l6.74,7.17l6.81-7.1h4.7v12.6h70.78l-10.16-7.15
			l-0.09,5.16h-4.38V17.32h4.39v4.58l5.04-4.59l5.04,0.01l-5.06,4.42l19.73,13.45h-90.71V25.7l-6.02,6.34l-6.3-6.34v9.49h-82.11
			c-3.65-0.02-8.59-3.93-8.59-9.42C173.86,20.86,177.95,16.21,183.23,16.21L183.23,16.21z"/>
		<path class="st0" d="M213.22,17.32H217c0.52,0.44,3.67,3.35,5.83,5.31c0-1.59,0-2.28,0-5.31h4.27v10.65h-3.54
			c-2.01-1.73-4.19-3.52-6.17-5.34c0.02,1.46,0,3.4,0,5.34h-4.17V17.32L213.22,17.32z"/>
		<path class="st0" d="M238.74,17.32h9.06v2.29h-4.92v1.91c0.44,0,3.58,0,4.56,0v2.11h-4.56v2.06c0.45,0,3.1,0.01,4.92,0v2.28h-9.06
			V17.32L238.74,17.32z"/>
		<path class="st1" d="M299.25,20.16l-1.84,4.2h3.65L299.25,20.16L299.25,20.16z M296.94,17.32h4.63l5.43,10.65h-4.22l-0.93-1.73
			l-5.34-0.01l-0.78,1.74h-4.39L296.94,17.32L296.94,17.32z"/>
		<path class="st1" d="M320.58,19.04v2.83l1.72,0.03c0.4,0,1.57-0.17,1.56-1.42c-0.01-1.19-1.16-1.44-1.56-1.45L320.58,19.04
			L320.58,19.04z M316.2,17.32h8.2c1.68,0,3.55,1.2,3.55,3.11c0,2.05-1.35,1.97-1.9,2.44c1.97,0.83,2.47,3.67,3.29,5.09h-4.32
			c-0.44-1.09-1.77-4.37-2.99-4.38l-1.45,0.03v4.34h-4.38V17.32L316.2,17.32z"/>
		<polygon class="st0" points="197.47,17.32 201.63,17.32 201.63,27.97 197.47,27.97 197.47,17.32 		"/>
	</g>
	<path class="st0" d="M91.16,66.96c-11.94-0.05-22.35-8.94-24.34-20.7c-2.16-12.73,6.04-25.12,18.63-28.09
		c7.17-1.69,13.87-0.54,20.07,3.47c0.16,0.1,0.31,0.21,0.49,0.34c-1.88,4.22-3.74,8.41-5.69,12.78c-0.22-0.28-0.37-0.51-0.55-0.7
		c-5.98-5.89-16.12-3.71-19.05,4.09c-1.47,3.9-1,10.32,3.93,14.01c0.89,0.67,1.84,1.28,2.81,1.83c1.47,0.83,3.03,1.27,4.78,1.21
		c2.42-0.09,53.57-0.04,72.05-0.02c0-0.03,0-0.05,0-0.08c0-11.88-9.63-21.5-21.5-21.5c-0.05,0-0.11,0-0.16,0
		c-1.31-10.62-10.36-18.84-21.34-18.84c-1.54,0-3.04,0.16-4.49,0.47C109.22,5.91,96.69,0.78,83.58,2.87
		C65.49,5.76,52.72,21.34,53.7,38.51c-4.77,3.94-7.81,9.91-7.81,16.58c0,11.88,9.63,21.5,21.5,21.5h75.4
		c7.48,0,14.07-3.82,17.92-9.62C141.11,66.98,99.28,66.99,91.16,66.96z"/>
</g>
</svg>
